<?xml version="1.0" encoding="utf-8"?>
<!-- Generator: Adobe Illustrator 22.0.1, SVG Export Plug-In . SVG Version: 6.00 Build 0)  -->
<svg version="1.1" id="Layer_1" xmlns="http://www.w3.org/2000/svg" xmlns:xlink="http://www.w3.org/1999/xlink" x="0px" y="0px"
	 viewBox="0 0 100 100" style="enable-background:new 0 0 100 100;" xml:space="preserve">
<style type="text/css">
	.st0{fill:url(#SVGID_1_);}
	.st1{fill:url(#SVGID_2_);}
	.st2{fill:url(#SVGID_3_);}
	.st3{fill:url(#SVGID_4_);}
	.st4{fill:url(#SVGID_5_);}
	.st5{fill:url(#SVGID_6_);}
	.st6{fill:url(#SVGID_7_);}
	.st7{fill:url(#SVGID_8_);}
	.st8{fill:url(#SVGID_9_);}
	.st9{fill:url(#SVGID_10_);}
	.st10{fill:url(#SVGID_11_);}
	.st11{fill:url(#SVGID_12_);}
	.st12{fill:url(#SVGID_13_);}
</style>
<g>
	<linearGradient id="SVGID_1_" gradientUnits="userSpaceOnUse" x1="0" y1="49.0989" x2="13.9051" y2="49.0989">
		<stop  offset="0" style="stop-color:#0097A7"/>
		<stop  offset="0.293" style="stop-color:#00BCD4"/>
		<stop  offset="0.5948" style="stop-color:#90A4AE"/>
		<stop  offset="1" style="stop-color:#006064"/>
	</linearGradient>
	<path class="st0" d="M7.5,67c0.3-0.3,0.6,0.2,1,1c0,0,0,0,0,0c0.1-0.1,0.2-0.1,0.3,0C6.3,62.5,5,56.4,5,50c0-9.6,3-18.4,8.1-25.7
		l-0.5,0.6c0,0,2.5-2.9,0.8-4.7C11.4,18.2,9,21.5,9,21.5s0.2-0.3,0.4-0.7C3.5,29,0,39.1,0,50c0,10.7,3.3,20.5,9,28.6
		c0,0,0-0.1,0-0.1C8.1,75.4,6.5,67.9,7.5,67z">
		<animateTransform
			attributeName="transform"
			attributeType="XML"
			type="rotate"
			from="0 50 50"
			to="360 50 50"
			dur="10s"
			repeatCount="indefinite" />
	</path>
	<linearGradient id="SVGID_2_" gradientUnits="userSpaceOnUse" x1="14.4398" y1="42.3971" x2="100" y2="42.3971">
		<stop  offset="0" style="stop-color:#0097A7"/>
		<stop  offset="0.293" style="stop-color:#00BCD4"/>
		<stop  offset="0.5948" style="stop-color:#90A4AE"/>
		<stop  offset="1" style="stop-color:#006064"/>
	</linearGradient>
	<path class="st1" d="M83.7,79.8L83.6,80c-0.1,0.1-0.2,0.2-0.3,0.3c0,0,0,0,0,0c-0.7,0.8-2,2.5-0.5,4c1.2,1.2,3.3,0.1,3.8-0.3
		c8.3-8.9,13.3-20.9,13.3-34c0-13.4-5.3-25.6-14-34.6c2.2,2.9,4.9,7.2,4.5,8.2c-0.5,1.2-4.9-5.1-7.8-5.6c-2-0.4-5.5-4.4-5-5.6
		c0.4-0.9,3.2-0.7,5.3,0.1C74.2,4.7,62.6,0,50,0C36.5,0,24.3,5.3,15.3,14c-0.1,0.2-1.7,2.6-0.3,4c1.3,1.3,2.7,0.5,3.6-0.2
		c0.3-0.3,0.5-0.5,0.8-0.8l0-0.1c0,0,0,0,0,0C27.4,9.6,38.2,5,50,5c24.9,0,45,20.1,45,45c0,11.6-4.4,22.2-11.6,30.1l0.2-0.2
		C83.7,79.9,83.7,79.8,83.7,79.8z">
		<animateTransform
			attributeName="transform"
			attributeType="XML"
			type="rotate"
			from="0 50 50"
			to="360 50 50"
			dur="10s"
			repeatCount="indefinite" />
	</path>
	<linearGradient id="SVGID_3_" gradientUnits="userSpaceOnUse" x1="10.2859" y1="89.1563" x2="81.307" y2="89.1563">
		<stop  offset="0" style="stop-color:#0097A7"/>
		<stop  offset="0.293" style="stop-color:#00BCD4"/>
		<stop  offset="0.5948" style="stop-color:#90A4AE"/>
		<stop  offset="1" style="stop-color:#006064"/>
	</linearGradient>
	<path class="st2" d="M80.6,86c-1.8-1.7-4.7,0.9-4.7,0.9l0.4-0.3C68.9,91.8,59.8,95,50,95c-14.1,0-26.7-6.5-35-16.7
		c0.9,1.9,1.5,4.4,0.9,5c-0.8,0.8-3.8-0.9-5.2-2.6c-0.1-0.1-0.2-0.2-0.3-0.3C19.4,92.3,33.8,100,50,100c11.4,0,21.9-3.8,30.4-10.3
		c-0.6,0.4-1,0.6-1,0.6S82.7,87.9,80.6,86z">
		<animateTransform
			attributeName="transform"
			attributeType="XML"
			type="rotate"
			from="0 50 50"
			to="360 50 50"
			dur="10s"
			repeatCount="indefinite" />
	</path>
	<linearGradient id="SVGID_4_" gradientUnits="userSpaceOnUse" x1="76.3181" y1="83.3096" x2="83.4214" y2="83.3096">
		<stop  offset="0" style="stop-color:#0097A7"/>
		<stop  offset="0.293" style="stop-color:#00BCD4"/>
		<stop  offset="0.5948" style="stop-color:#90A4AE"/>
		<stop  offset="1" style="stop-color:#006064"/>
	</linearGradient>
	<path class="st3" d="M83.3,80.3C83.3,80.3,83.3,80.3,83.3,80.3c0.1-0.1,0.1-0.1,0.1-0.2l-7.1,6.4C78.8,84.7,81.2,82.6,83.3,80.3z"
		/>
	<linearGradient id="SVGID_5_" gradientUnits="userSpaceOnUse" x1="80.3675" y1="86.8023" x2="86.807" y2="86.8023">
		<stop  offset="0" style="stop-color:#0097A7"/>
		<stop  offset="0.293" style="stop-color:#00BCD4"/>
		<stop  offset="0.5948" style="stop-color:#90A4AE"/>
		<stop  offset="1" style="stop-color:#006064"/>
	</linearGradient>
	<path class="st4" d="M80.4,89.7c1.1-0.7,2.8-1.9,3.5-2.5c0.8-0.7,2.9-3.3,2.9-3.3s-0.1,0-0.1,0.1C84.7,86.1,82.6,88,80.4,89.7z"/>
</g>
<linearGradient id="SVGID_6_" gradientUnits="userSpaceOnUse" x1="35" y1="15" x2="65" y2="15">
	<stop  offset="0" style="stop-color:#0097A7"/>
	<stop  offset="0.3749" style="stop-color:#00BCD4"/>
	<stop  offset="0.7681" style="stop-color:#0097A7"/>
</linearGradient>
<path class="st5" d="M35,15L35,15c0-0.8,0.7-1.5,1.5-1.5h27c0.8,0,1.5,0.7,1.5,1.5v0c0,0.8-0.7,1.5-1.5,1.5h-27
	C35.7,16.5,35,15.8,35,15z">
	<animateTransform
		attributeName="transform"
		attributeType="XML"
		type="translate"
		values="10,0;-10,0;10,0"
		dur="5s"
		repeatCount="indefinite" />
</path>
<linearGradient id="SVGID_7_" gradientUnits="userSpaceOnUse" x1="40" y1="25" x2="60" y2="25">
	<stop  offset="0" style="stop-color:#0097A7"/>
	<stop  offset="0.3749" style="stop-color:#00BCD4"/>
	<stop  offset="0.7681" style="stop-color:#0097A7"/>
</linearGradient>
<path class="st6" d="M40,25L40,25c0-0.8,0.7-1.5,1.5-1.5h17c0.8,0,1.5,0.7,1.5,1.5v0c0,0.8-0.7,1.5-1.5,1.5h-17
	C40.7,26.5,40,25.8,40,25z">
	<animateTransform
		attributeName="transform"
		attributeType="XML"
		type="translate"
		values="-15,0;15,0;-15,0"
		dur="5s"
		repeatCount="indefinite" />
</path>
<linearGradient id="SVGID_8_" gradientUnits="userSpaceOnUse" x1="39.5" y1="35" x2="60.5" y2="35">
	<stop  offset="0" style="stop-color:#0097A7"/>
	<stop  offset="0.3749" style="stop-color:#00BCD4"/>
	<stop  offset="0.7681" style="stop-color:#0097A7"/>
</linearGradient>
<path class="st7" d="M39.5,35L39.5,35c0-0.8,0.7-1.5,1.5-1.5h18c0.8,0,1.5,0.7,1.5,1.5l0,0c0,0.8-0.7,1.5-1.5,1.5H41
	C40.2,36.5,39.5,35.8,39.5,35z">
	<animateTransform
		attributeName="transform"
		attributeType="XML"
		type="scale"
		from="1 1"
		to="1.45 1"
		dur="1s"
		repeatCount="indefinite" />
		<animateTransform
			attributeName="transform"
			additive="sum"
			attributeType="XML"
			type="translate"
			from="0 0"
			to="-15 0"
			dur="1s"
			repeatCount="indefinite" />
</path>
<linearGradient id="SVGID_9_" gradientUnits="userSpaceOnUse" x1="45" y1="45" x2="55" y2="45">
	<stop  offset="0" style="stop-color:#0097A7"/>
	<stop  offset="0.3749" style="stop-color:#00BCD4"/>
	<stop  offset="0.7681" style="stop-color:#0097A7"/>
</linearGradient>
<path class="st8" d="M45,45L45,45c0-0.8,0.7-1.5,1.5-1.5h7c0.8,0,1.5,0.7,1.5,1.5l0,0c0,0.8-0.7,1.5-1.5,1.5h-7
	C45.7,46.5,45,45.8,45,45z">
	<animateTransform
		attributeName="transform"
		attributeType="XML"
		type="scale"
		from="1 1"
		to="1.45 1"
		dur="1s"
		repeatCount="indefinite" />
		<animateTransform
			attributeName="transform"
			additive="sum"
			attributeType="XML"
			type="translate"
			from="0 0"
			to="-15 0"
			dur="1s"
			repeatCount="indefinite" />
</path>
<linearGradient id="SVGID_10_" gradientUnits="userSpaceOnUse" x1="45" y1="55" x2="55" y2="55">
	<stop  offset="0" style="stop-color:#0097A7"/>
	<stop  offset="0.3749" style="stop-color:#00BCD4"/>
	<stop  offset="0.7681" style="stop-color:#0097A7"/>
</linearGradient>
<path class="st9" d="M45,55L45,55c0-0.8,0.7-1.5,1.5-1.5h7c0.8,0,1.5,0.7,1.5,1.5l0,0c0,0.8-0.7,1.5-1.5,1.5h-7
	C45.7,56.5,45,55.8,45,55z">
	<animateTransform
		attributeName="transform"
		attributeType="XML"
		type="scale"
		from="1 1"
		to="1.45 1"
		dur="1s"
		repeatCount="indefinite" />
		<animateTransform
			attributeName="transform"
			additive="sum"
			attributeType="XML"
			type="translate"
			from="0 0"
			to="-15 0"
			dur="1s"
			repeatCount="indefinite" />
</path>
<linearGradient id="SVGID_11_" gradientUnits="userSpaceOnUse" x1="39.5" y1="65" x2="60.5" y2="65">
	<stop  offset="0" style="stop-color:#0097A7"/>
	<stop  offset="0.3749" style="stop-color:#00BCD4"/>
	<stop  offset="0.7681" style="stop-color:#0097A7"/>
</linearGradient>
<path class="st10" d="M39.5,65L39.5,65c0-0.8,0.7-1.5,1.5-1.5h18c0.8,0,1.5,0.7,1.5,1.5l0,0c0,0.8-0.7,1.5-1.5,1.5H41
	C40.2,66.5,39.5,65.8,39.5,65z">
	<animateTransform
		attributeName="transform"
		attributeType="XML"
		type="scale"
		from="1 1"
		to="1.45 1"
		dur="1s"
		repeatCount="indefinite" />
		<animateTransform
			attributeName="transform"
			additive="sum"
			attributeType="XML"
			type="translate"
			from="0 0"
			to="-15 0"
			dur="1s"
			repeatCount="indefinite" />
</path>
<linearGradient id="SVGID_12_" gradientUnits="userSpaceOnUse" x1="40" y1="75" x2="60" y2="75">
	<stop  offset="0" style="stop-color:#0097A7"/>
	<stop  offset="0.3749" style="stop-color:#00BCD4"/>
	<stop  offset="0.7681" style="stop-color:#0097A7"/>
</linearGradient>
<path class="st11" d="M40,75L40,75c0-0.8,0.7-1.5,1.5-1.5h17c0.8,0,1.5,0.7,1.5,1.5l0,0c0,0.8-0.7,1.5-1.5,1.5h-17
	C40.7,76.5,40,75.8,40,75z">
	<animateTransform
		attributeName="transform"
		attributeType="XML"
		type="translate"
		values="15,0;-15,0;15,0"
		dur="5s"
		repeatCount="indefinite" />
</path>
<linearGradient id="SVGID_13_" gradientUnits="userSpaceOnUse" x1="35" y1="85" x2="65" y2="85">
	<stop  offset="0" style="stop-color:#0097A7"/>
	<stop  offset="0.3749" style="stop-color:#00BCD4"/>
	<stop  offset="0.7681" style="stop-color:#0097A7"/>
</linearGradient>
<path class="st12" d="M35,85L35,85c0-0.8,0.7-1.5,1.5-1.5h27c0.8,0,1.5,0.7,1.5,1.5l0,0c0,0.8-0.7,1.5-1.5,1.5h-27
	C35.7,86.5,35,85.8,35,85z">
	<animateTransform
		attributeName="transform"
		attributeType="XML"
		type="translate"
		values="-10,0;10,0;-10,0"
		dur="5s"
		repeatCount="indefinite" />
</path>
</svg>
